<?xml version="1.0" standalone="no"?>
<svg xmlns:xlink="http://www.w3.org/1999/xlink" id="wave" style="transform:rotate(0deg); transition: 0.3s" viewBox="0 0 1440 110" version="1.1" xmlns="http://www.w3.org/2000/svg"><defs><linearGradient id="sw-gradient-0" x1="0" x2="0" y1="1" y2="0"><stop stop-color="rgba(150, 2, 0, 1)" offset="0%"/><stop stop-color="rgba(228, 214, 167, 1)" offset="100%"/></linearGradient></defs><path style="transform:translate(0, 0px); opacity:1" fill="url(#sw-gradient-0)" d="M0,88L10,78.8C20,70,40,51,60,40.3C80,29,100,26,120,33C140,40,160,59,180,62.3C200,66,220,55,240,45.8C260,37,280,29,300,38.5C320,48,340,73,360,80.7C380,88,400,77,420,66C440,55,460,44,480,42.2C500,40,520,48,540,42.2C560,37,580,18,600,14.7C620,11,640,22,660,34.8C680,48,700,62,720,66C740,70,760,62,780,49.5C800,37,820,18,840,16.5C860,15,880,29,900,38.5C920,48,940,51,960,49.5C980,48,1000,40,1020,33C1040,26,1060,18,1080,25.7C1100,33,1120,55,1140,64.2C1160,73,1180,70,1200,60.5C1220,51,1240,37,1260,29.3C1280,22,1300,22,1320,29.3C1340,37,1360,51,1380,47.7C1400,44,1420,22,1430,11L1440,0L1440,110L1430,110C1420,110,1400,110,1380,110C1360,110,1340,110,1320,110C1300,110,1280,110,1260,110C1240,110,1220,110,1200,110C1180,110,1160,110,1140,110C1120,110,1100,110,1080,110C1060,110,1040,110,1020,110C1000,110,980,110,960,110C940,110,920,110,900,110C880,110,860,110,840,110C820,110,800,110,780,110C760,110,740,110,720,110C700,110,680,110,660,110C640,110,620,110,600,110C580,110,560,110,540,110C520,110,500,110,480,110C460,110,440,110,420,110C400,110,380,110,360,110C340,110,320,110,300,110C280,110,260,110,240,110C220,110,200,110,180,110C160,110,140,110,120,110C100,110,80,110,60,110C40,110,20,110,10,110L0,110Z"/><defs><linearGradient id="sw-gradient-1" x1="0" x2="0" y1="1" y2="0"><stop stop-color="rgba(150, 2, 0, 1)" offset="0%"/><stop stop-color="rgba(228, 214, 167, 1)" offset="100%"/></linearGradient></defs><path style="transform:translate(0, 50px); opacity:0.9" fill="url(#sw-gradient-1)" d="M0,22L10,23.8C20,26,40,29,60,27.5C80,26,100,18,120,29.3C140,40,160,70,180,69.7C200,70,220,40,240,34.8C260,29,280,48,300,55C320,62,340,59,360,58.7C380,59,400,62,420,58.7C440,55,460,44,480,38.5C500,33,520,33,540,27.5C560,22,580,11,600,16.5C620,22,640,44,660,49.5C680,55,700,44,720,44C740,44,760,55,780,58.7C800,62,820,59,840,51.3C860,44,880,33,900,40.3C920,48,940,73,960,75.2C980,77,1000,55,1020,44C1040,33,1060,33,1080,38.5C1100,44,1120,55,1140,49.5C1160,44,1180,22,1200,23.8C1220,26,1240,51,1260,55C1280,59,1300,40,1320,27.5C1340,15,1360,7,1380,5.5C1400,4,1420,7,1430,9.2L1440,11L1440,110L1430,110C1420,110,1400,110,1380,110C1360,110,1340,110,1320,110C1300,110,1280,110,1260,110C1240,110,1220,110,1200,110C1180,110,1160,110,1140,110C1120,110,1100,110,1080,110C1060,110,1040,110,1020,110C1000,110,980,110,960,110C940,110,920,110,900,110C880,110,860,110,840,110C820,110,800,110,780,110C760,110,740,110,720,110C700,110,680,110,660,110C640,110,620,110,600,110C580,110,560,110,540,110C520,110,500,110,480,110C460,110,440,110,420,110C400,110,380,110,360,110C340,110,320,110,300,110C280,110,260,110,240,110C220,110,200,110,180,110C160,110,140,110,120,110C100,110,80,110,60,110C40,110,20,110,10,110L0,110Z"/></svg>