<?xml version="1.0" standalone="no"?>
<svg xmlns:xlink="http://www.w3.org/1999/xlink" id="wave" style="transform:rotate(0deg); transition: 0.3s" viewBox="0 0 1440 260" version="1.1" xmlns="http://www.w3.org/2000/svg"><defs><linearGradient id="sw-gradient-0" x1="0" x2="0" y1="1" y2="0"><stop stop-color="rgba(150, 2, 0, 1)" offset="0%"/><stop stop-color="rgba(228, 214, 167, 1)" offset="100%"/></linearGradient></defs><path style="transform:translate(0, 0px); opacity:1" fill="url(#sw-gradient-0)" d="M0,130L10,125.7C20,121,40,113,60,95.3C80,78,100,52,120,43.3C140,35,160,43,180,56.3C200,69,220,87,240,112.7C260,139,280,173,300,190.7C320,208,340,208,360,203.7C380,199,400,191,420,169C440,147,460,113,480,99.7C500,87,520,95,540,82.3C560,69,580,35,600,30.3C620,26,640,52,660,69.3C680,87,700,95,720,112.7C740,130,760,156,780,169C800,182,820,182,840,169C860,156,880,130,900,99.7C920,69,940,35,960,52C980,69,1000,139,1020,160.3C1040,182,1060,156,1080,125.7C1100,95,1120,61,1140,52C1160,43,1180,61,1200,86.7C1220,113,1240,147,1260,138.7C1280,130,1300,78,1320,47.7C1340,17,1360,9,1380,17.3C1400,26,1420,52,1430,65L1440,78L1440,260L1430,260C1420,260,1400,260,1380,260C1360,260,1340,260,1320,260C1300,260,1280,260,1260,260C1240,260,1220,260,1200,260C1180,260,1160,260,1140,260C1120,260,1100,260,1080,260C1060,260,1040,260,1020,260C1000,260,980,260,960,260C940,260,920,260,900,260C880,260,860,260,840,260C820,260,800,260,780,260C760,260,740,260,720,260C700,260,680,260,660,260C640,260,620,260,600,260C580,260,560,260,540,260C520,260,500,260,480,260C460,260,440,260,420,260C400,260,380,260,360,260C340,260,320,260,300,260C280,260,260,260,240,260C220,260,200,260,180,260C160,260,140,260,120,260C100,260,80,260,60,260C40,260,20,260,10,260L0,260Z"/><defs><linearGradient id="sw-gradient-1" x1="0" x2="0" y1="1" y2="0"><stop stop-color="rgba(150, 2, 0, 1)" offset="0%"/><stop stop-color="rgba(228, 214, 167, 1)" offset="100%"/></linearGradient></defs><path style="transform:translate(0, 50px); opacity:0.9" fill="url(#sw-gradient-1)" d="M0,26L10,30.3C20,35,40,43,60,52C80,61,100,69,120,86.7C140,104,160,130,180,156C200,182,220,208,240,221C260,234,280,234,300,199.3C320,165,340,95,360,69.3C380,43,400,61,420,95.3C440,130,460,182,480,173.3C500,165,520,95,540,65C560,35,580,43,600,43.3C620,43,640,35,660,65C680,95,700,165,720,182C740,199,760,165,780,134.3C800,104,820,78,840,86.7C860,95,880,139,900,143C920,147,940,113,960,99.7C980,87,1000,95,1020,108.3C1040,121,1060,139,1080,121.3C1100,104,1120,52,1140,65C1160,78,1180,156,1200,182C1220,208,1240,182,1260,156C1280,130,1300,104,1320,86.7C1340,69,1360,61,1380,65C1400,69,1420,87,1430,95.3L1440,104L1440,260L1430,260C1420,260,1400,260,1380,260C1360,260,1340,260,1320,260C1300,260,1280,260,1260,260C1240,260,1220,260,1200,260C1180,260,1160,260,1140,260C1120,260,1100,260,1080,260C1060,260,1040,260,1020,260C1000,260,980,260,960,260C940,260,920,260,900,260C880,260,860,260,840,260C820,260,800,260,780,260C760,260,740,260,720,260C700,260,680,260,660,260C640,260,620,260,600,260C580,260,560,260,540,260C520,260,500,260,480,260C460,260,440,260,420,260C400,260,380,260,360,260C340,260,320,260,300,260C280,260,260,260,240,260C220,260,200,260,180,260C160,260,140,260,120,260C100,260,80,260,60,260C40,260,20,260,10,260L0,260Z"/><defs><linearGradient id="sw-gradient-2" x1="0" x2="0" y1="1" y2="0"><stop stop-color="rgba(150, 2, 0, 1)" offset="0%"/><stop stop-color="rgba(228, 214, 167, 1)" offset="100%"/></linearGradient></defs><path style="transform:translate(0, 100px); opacity:0.8" fill="url(#sw-gradient-2)" d="M0,0L10,26C20,52,40,104,60,138.7C80,173,100,191,120,190.7C140,191,160,173,180,173.3C200,173,220,191,240,199.3C260,208,280,208,300,199.3C320,191,340,173,360,156C380,139,400,121,420,104C440,87,460,69,480,82.3C500,95,520,139,540,160.3C560,182,580,182,600,169C620,156,640,130,660,117C680,104,700,104,720,104C740,104,760,104,780,104C800,104,820,104,840,125.7C860,147,880,191,900,177.7C920,165,940,95,960,91C980,87,1000,147,1020,156C1040,165,1060,121,1080,95.3C1100,69,1120,61,1140,47.7C1160,35,1180,17,1200,21.7C1220,26,1240,52,1260,86.7C1280,121,1300,165,1320,151.7C1340,139,1360,69,1380,73.7C1400,78,1420,156,1430,195L1440,234L1440,260L1430,260C1420,260,1400,260,1380,260C1360,260,1340,260,1320,260C1300,260,1280,260,1260,260C1240,260,1220,260,1200,260C1180,260,1160,260,1140,260C1120,260,1100,260,1080,260C1060,260,1040,260,1020,260C1000,260,980,260,960,260C940,260,920,260,900,260C880,260,860,260,840,260C820,260,800,260,780,260C760,260,740,260,720,260C700,260,680,260,660,260C640,260,620,260,600,260C580,260,560,260,540,260C520,260,500,260,480,260C460,260,440,260,420,260C400,260,380,260,360,260C340,260,320,260,300,260C280,260,260,260,240,260C220,260,200,260,180,260C160,260,140,260,120,260C100,260,80,260,60,260C40,260,20,260,10,260L0,260Z"/><defs><linearGradient id="sw-gradient-3" x1="0" x2="0" y1="1" y2="0"><stop stop-color="rgba(150, 2, 0, 1)" offset="0%"/><stop stop-color="rgba(228, 214, 167, 1)" offset="100%"/></linearGradient></defs><path style="transform:translate(0, 150px); opacity:0.7" fill="url(#sw-gradient-3)" d="M0,130L10,134.3C20,139,40,147,60,143C80,139,100,121,120,130C140,139,160,173,180,160.3C200,147,220,87,240,52C260,17,280,9,300,21.7C320,35,340,69,360,91C380,113,400,121,420,104C440,87,460,43,480,56.3C500,69,520,139,540,173.3C560,208,580,208,600,195C620,182,640,156,660,151.7C680,147,700,165,720,147.3C740,130,760,78,780,82.3C800,87,820,147,840,164.7C860,182,880,156,900,147.3C920,139,940,147,960,160.3C980,173,1000,191,1020,195C1040,199,1060,191,1080,177.7C1100,165,1120,147,1140,147.3C1160,147,1180,165,1200,169C1220,173,1240,165,1260,173.3C1280,182,1300,208,1320,212.3C1340,217,1360,199,1380,177.7C1400,156,1420,130,1430,117L1440,104L1440,260L1430,260C1420,260,1400,260,1380,260C1360,260,1340,260,1320,260C1300,260,1280,260,1260,260C1240,260,1220,260,1200,260C1180,260,1160,260,1140,260C1120,260,1100,260,1080,260C1060,260,1040,260,1020,260C1000,260,980,260,960,260C940,260,920,260,900,260C880,260,860,260,840,260C820,260,800,260,780,260C760,260,740,260,720,260C700,260,680,260,660,260C640,260,620,260,600,260C580,260,560,260,540,260C520,260,500,260,480,260C460,260,440,260,420,260C400,260,380,260,360,260C340,260,320,260,300,260C280,260,260,260,240,260C220,260,200,260,180,260C160,260,140,260,120,260C100,260,80,260,60,260C40,260,20,260,10,260L0,260Z"/></svg>